<svg width="32" height="32" viewBox="0 0 32 32" fill="none" xmlns="http://www.w3.org/2000/svg">
  <rect width="32" height="32" rx="4" fill="#8B5CF6"/>
  <g transform="translate(16 16)">
    <path
      d="M 8,4 A 4,4 0 0 1 8,-4"
      fill="none"
      stroke="white"
      stroke-width="1.5"
      stroke-linecap="round"
      transform="rotate(0)"
    />
    <path
      d="M 8,4 A 4,4 0 0 1 8,-4"
      fill="none"
      stroke="white"
      stroke-width="1.5"
      stroke-linecap="round"
      transform="rotate(60)"
    />
    <path
      d="M 8,4 A 4,4 0 0 1 8,-4"
      fill="none"
      stroke="white"
      stroke-width="1.5"
      stroke-linecap="round"
      transform="rotate(120)"
    />
    <path
      d="M 8,4 A 4,4 0 0 1 8,-4"
      fill="none"
      stroke="white"
      stroke-width="1.5"
      stroke-linecap="round"
      transform="rotate(180)"
    />
    <path
      d="M 8,4 A 4,4 0 0 1 8,-4"
      fill="none"
      stroke="white"
      stroke-width="1.5"
      stroke-linecap="round"
      transform="rotate(240)"
    />
    <path
      d="M 8,4 A 4,4 0 0 1 8,-4"
      fill="none"
      stroke="white"
      stroke-width="1.5"
      stroke-linecap="round"
      transform="rotate(300)"
    />
  </g>
</svg>